<svg width="2531" height="1024" viewBox="0 0 2531 1024" fill="none" xmlns="http://www.w3.org/2000/svg">
<path d="M1009.66 432.8H1039.04L1087.4 569.56L1120.16 484.54L1100.14 432.8H1125.1L1177.36 566.7L1223.64 432.8H1250.68L1176.58 628.32L1132.64 516.26L1084.54 628.58L1009.66 432.8ZM1437.05 432.02V620H1411.57V537.58H1313.29V620H1288.07V432.02H1313.29V513.4H1411.57V432.02H1437.05ZM1472.48 620L1554.64 424.22H1556.2L1638.36 620H1609.24L1589.74 570.6H1517.46L1497.44 620H1472.48ZM1526.3 548.76H1581.16L1554.38 480.38L1526.3 548.76ZM1658.16 428.64H1787.12V465.04H1740.58V620H1702.88V465.04H1658.16V428.64ZM1823.5 428.64H1954.02V465.04H1861.2V505.86H1943.36V542.26H1861.2V583.6H1957.66V620H1823.5V428.64ZM1996.67 428.64H2034.37V583.6H2124.33V620H1996.67V428.64ZM2163.23 428.64H2200.93V583.6H2290.89V620H2163.23V428.64ZM2316.79 620L2414.03 465.04H2355.79C2352.15 465.04 2348.34 464.26 2344.35 462.7C2340.54 460.967 2337.25 458.713 2334.47 455.94C2331.87 452.993 2330.57 449.787 2330.57 446.32V419.02H2365.15V422.66C2365.15 426.473 2365.76 428.467 2366.97 428.64C2368.19 428.64 2370.35 428.64 2373.47 428.64H2479.81L2381.53 583.6H2479.55V620H2316.79Z" fill="#25D366"/>
<path d="M443.405 0L886.81 256V768L443.405 1024L0 768V256L443.405 0Z" fill="white"/>
<path fill-rule="evenodd" clip-rule="evenodd" d="M443.405 23.094L20 267.547V756.453L443.405 1000.91L866.81 756.453V267.547L443.405 23.094ZM886.81 256L443.405 0L0 256V768L443.405 1024L886.81 768V256Z" fill="#25D366"/>
<path d="M98.0003 395.743C153.166 370.019 222.042 400.674 251.701 464.278L368.418 714.577V714.577C313.252 740.301 244.376 709.646 214.717 646.042L98.0003 395.743V395.743Z" fill="#188440"/>
<path d="M113.982 388.29C169.147 362.566 238.024 393.221 267.683 456.825L384.399 707.124V707.124C329.234 732.849 260.357 702.193 230.698 638.589L113.982 388.29V388.29Z" fill="#25D366"/>
<path d="M752.617 510.053C697.451 484.329 628.575 514.984 598.916 578.588L535.901 713.721C591.066 739.445 659.943 708.79 689.602 645.186L752.617 510.053Z" fill="#188440"/>
<path d="M731.979 512.585C676.814 486.861 607.937 517.516 578.278 581.12L519.92 706.269C575.085 731.993 643.962 701.338 673.621 637.734L731.979 512.585Z" fill="#25D366"/>
<path d="M260.618 317.082C315.784 291.358 384.661 322.013 414.32 385.617L567.666 714.469C512.5 740.193 443.624 709.538 413.965 645.934L260.618 317.082Z" fill="#25D366"/>
<path d="M278.673 314.076C333.839 288.352 402.715 319.007 432.374 382.611L583.647 707.016C528.482 732.74 459.605 702.085 429.946 638.481L278.673 314.076Z" fill="#188440"/>
<circle cx="714.525" cy="349.673" r="60.5079" fill="#188440"/>
<circle cx="727.491" cy="349.673" r="60.5079" fill="#25D366"/>
</svg>
